<svg t="1631698477605" class="icon" viewBox="0 0 1109 1024" version="1.1" xmlns="http://www.w3.org/2000/svg" p-id="2517" width="200" height="200"><path d="M815.4624 0A279.6544 279.6544 0 0 0 537.6 283.5968c0 118.8864 75.6736 253.8496 139.9808 345.2416 50.5344 70.9632 103.3216 130.3552 126.2592 157.8496a19.456 19.456 0 0 0 11.52 6.8096 15.7184 15.7184 0 0 0 11.4176-6.8096 1751.04 1751.04 0 0 0 126.2592-157.8496c64.256-91.392 140.032-226.4064 140.032-345.2416A279.7056 279.7056 0 0 0 815.36 0z m0 396.7488a119.04 119.04 0 1 1 119.04-119.04 119.3472 119.3472 0 0 1-119.04 119.04z m-119.1424 350.72l-615.7824-32.8704 71.68-250.88a28.3136 28.3136 0 0 1 26.5728-21.6064l317.44-10.24a981.2992 981.2992 0 0 0 76.1856 157.9008 1757.8496 1757.8496 0 0 0 123.904 157.696z m-200.1408 276.48l-464.896-2.7648a24.6272 24.6272 0 0 1-24.2176-11.9808C0 1004.4928 0 994.816 0 985.1392l62.8224-218.7776 598.6304 39.8336L496.64 1023.8976z m574.6688-182.6816l-185.088-17.152q58.9312-72.2944 115.3536-146.6368c2.3552-9.5232 9.6768-14.3872 14.4384-23.9616z m36.5056 139.008c0 2.3552 2.4576 7.2192 2.4576 9.6256a31.7952 31.7952 0 0 1-31.4368 31.2832H543.9488l168.6016-204.8 368.3328 67.9424 26.6752 96.1024z" p-id="2518"></path></svg>