<svg t="1631698554905" class="icon" viewBox="0 0 1024 1024" version="1.1" xmlns="http://www.w3.org/2000/svg" p-id="3320" width="200" height="200"><path d="M65.962667 891.050667c-7.424 0-14.421333-3.626667-18.816-9.813334s-5.632-14.08-3.370667-21.333333L269.141333 144.725333a23.466667 23.466667 0 0 1 17.28-16.170666 22.954667 22.954667 0 0 1 22.272 7.338666 24.32 24.32 0 0 1 4.821334 23.424L88.149333 874.496a23.466667 23.466667 0 0 1-22.186666 16.554667z m892.074666 0a23.424 23.424 0 0 1-22.186666-16.512L710.485333 159.317333a23.893333 23.893333 0 0 1 15.104-29.824 23.210667 23.210667 0 0 1 29.269334 15.189334l225.365333 715.178666a24.32 24.32 0 0 1-3.370667 21.333334 23.338667 23.338667 0 0 1-18.816 9.856z m-77.952-25.941334L661.077333 144.938667a23.381333 23.381333 0 0 0-22.272-16.768h-111.274666a23.850667 23.850667 0 0 1 7.765333 17.664v57.898666a23.552 23.552 0 0 1-23.296 23.338667 23.552 23.552 0 0 1-23.296-23.338667V145.834667c0-6.741333 2.858667-13.184 7.765333-17.664H383.530667a23.381333 23.381333 0 0 0-22.272 16.768L142.208 865.109333a24.32 24.32 0 0 0 3.498667 21.205334 23.168 23.168 0 0 0 18.773333 9.685333h330.666667a23.893333 23.893333 0 0 1-6.442667-16.384v-57.941333a23.552 23.552 0 0 1 23.296-23.338667c12.672 0 23.04 10.368 23.296 23.338667v57.941333a23.893333 23.893333 0 0 1-6.442667 16.384h329.002667a23.125333 23.125333 0 0 0 18.773333-9.685333 24.192 24.192 0 0 0 3.456-21.205334z m-344.789333-166.954666a24.021333 24.021333 0 0 1-11.52 21.077333 22.954667 22.954667 0 0 1-23.594667 0 23.893333 23.893333 0 0 1-11.52-21.077333v-123.605334a24.021333 24.021333 0 0 1 11.52-21.077333 22.741333 22.741333 0 0 1 23.594667 0 23.893333 23.893333 0 0 1 11.52 21.077333v123.605334z m0-247.210667a23.552 23.552 0 0 1-23.296 23.338667 23.552 23.552 0 0 1-23.296-23.338667V327.296a24.021333 24.021333 0 0 1 11.52-21.077333 22.954667 22.954667 0 0 1 23.594667 0 23.893333 23.893333 0 0 1 11.52 21.077333v123.648z m0 0" p-id="3321"></path></svg>