<svg t="1631698837832" class="icon" viewBox="0 0 1024 1024" version="1.1" xmlns="http://www.w3.org/2000/svg" p-id="6797" width="200" height="200"><path d="M511.676855 481.393562c-16.895862 0-30.652601 13.75674-30.652601 30.652602 0 16.895862 13.75674 30.652601 30.652601 30.652601 8.124786 0 15.880263-3.231449 21.696871-8.95573 5.724281-5.724281 8.95573-13.572085 8.95573-21.696871-0.092327-16.988189-13.75674-30.652601-30.652601-30.652602z" p-id="6798"></path><path d="M512.046164 0.461636C229.525201 0.461636 0.461636 229.525201 0.461636 512.046164s229.063565 511.584528 511.584528 511.584528 511.584528-229.063565 511.584528-511.584528S794.567126 0.461636 512.046164 0.461636z m20.958254 173.205662c1.938869-20.588946 19.296366-36.376882 40.069967-36.376882 20.681273 0 38.03877 15.787936 40.069966 36.376882v138.029032c42.562799 21.696871 77.185466 56.319538 98.882337 98.882337h137.290416c20.588946 1.938869 36.376882 19.296366 36.376882 40.069967 0 20.681273-15.787936 38.03877-36.376882 40.069967H684.697863c-16.711207-0.369308-31.483545-11.079253-36.930845-26.959517-14.956992-40.716256-47.086827-72.846091-87.803083-87.803084-16.064918-5.539627-26.86719-20.588946-26.959517-37.669461V173.667298zM173.297989 410.578667h138.029033c21.789198-42.470472 56.411865-77.093139 98.882337-98.882337V173.667298c1.938869-20.588946 19.296366-36.376882 40.069967-36.376882 20.681273 0 38.03877 15.787936 40.069966 36.376882v165.26553c-0.369308 16.711207-11.079253 31.483545-26.959517 36.930845-41.085565 14.772338-73.492381 46.902173-88.5417 87.803084-5.4473 15.880263-20.12731 26.590208-36.930845 26.959517H173.297989c-20.588946-1.938869-36.376882-19.296366-36.376882-40.069967 0-20.681273 15.787936-38.03877 36.376882-39.97764zM490.256965 850.332702c-1.938869 20.588946-19.296366 36.376882-40.069967 36.376882-20.681273 0-38.03877-15.695609-40.069966-36.376882V712.395997c-42.562799-21.696871-77.185466-56.319538-98.882337-98.882337H173.297989c-20.588946-1.938869-36.376882-19.296366-36.376882-40.069967 0-20.681273 15.787936-38.03877 36.376882-40.069967h165.265531c16.711207 0.369308 31.483545 11.079253 36.930845 26.959517 14.956992 40.716256 47.086827 72.846091 87.803083 87.803084 16.064918 5.539627 26.86719 20.588946 26.959517 37.669461V850.332702z m21.41989-246.051753c-50.964566 0-92.234785-41.270219-92.234785-92.234785s41.270219-92.234785 92.234785-92.234785 92.234785 41.270219 92.234785 92.234785c0 24.466685-9.694347 47.917771-27.051844 65.182941-17.26517 17.26517-40.716256 27.051844-65.182941 27.051844z m339.025156 9.232711H712.765305c-21.789198 42.470472-56.411865 77.093139-98.882337 98.882337v137.290415c-1.938869 20.588946-19.296366 36.376882-40.069966 36.376883-20.681273 0-38.03877-15.787936-40.069967-36.376883V685.067172c0.369308-16.711207 11.079253-31.483545 26.959517-36.930845 40.716256-14.956992 72.846091-47.086827 87.803083-87.803084 5.4473-15.787936 20.12731-26.590208 36.930845-26.959517h165.265531c20.588946 1.938869 36.376882 19.296366 36.376882 40.069967 0 20.681273-15.787936 38.03877-36.376882 40.069967z" p-id="6799"></path></svg>